<?xml version="1.0" standalone="no"?>
<!DOCTYPE svg PUBLIC "-//W3C//DTD SVG 1.1//EN" "http://www.w3.org/Graphics/SVG/1.1/DTD/svg11.dtd" >
<svg xmlns="http://www.w3.org/2000/svg">
<metadata>
Created by FontForge 20120731 at Fri Mar 17 15:23:40 2017
 By admin
</metadata>
<defs>
<font id="iconfont" horiz-adv-x="1024" >
  <font-face 
    font-family="iconfont"
    font-weight="500"
    font-stretch="normal"
    units-per-em="1024"
    panose-1="2 0 6 3 0 0 0 0 0 0"
    ascent="896"
    descent="-128"
    x-height="792"
    bbox="0 -128 1028 896"
    underline-thickness="0"
    underline-position="0"
    unicode-range="U+0078-E62D"
  />
<missing-glyph 
 />
    <glyph glyph-name=".notdef" 
 />
    <glyph glyph-name=".notdef" 
 />
    <glyph glyph-name=".null" horiz-adv-x="0" 
 />
    <glyph glyph-name="nonmarkingreturn" horiz-adv-x="341" 
 />
    <glyph glyph-name="x" unicode="x" horiz-adv-x="1001" 
d="M281 543q-27 -1 -53 -1h-83q-18 0 -36.5 -6t-32.5 -18.5t-23 -32t-9 -45.5v-76h912v41q0 16 -0.5 30t-0.5 18q0 13 -5 29t-17 29.5t-31.5 22.5t-49.5 9h-133v-97h-438v97zM955 310v-52q0 -23 0.5 -52t0.5 -58t-10.5 -47.5t-26 -30t-33 -16t-31.5 -4.5q-14 -1 -29.5 -0.5
t-29.5 0.5h-32l-45 128h-439l-44 -128h-29h-34q-20 0 -45 1q-25 0 -41 9.5t-25.5 23t-13.5 29.5t-4 30v167h911zM163 247q-12 0 -21 -8.5t-9 -21.5t9 -21.5t21 -8.5q13 0 22 8.5t9 21.5t-9 21.5t-22 8.5zM316 123q-8 -26 -14 -48q-5 -19 -10.5 -37t-7.5 -25t-3 -15t1 -14.5
t9.5 -10.5t21.5 -4h37h67h81h80h64h36q23 0 34 12t2 38q-5 13 -9.5 30.5t-9.5 34.5q-5 19 -11 39h-368zM336 498v228q0 11 2.5 23t10 21.5t20.5 15.5t34 6h188q31 0 51.5 -14.5t20.5 -52.5v-227h-327z" />
    <glyph glyph-name="icon-gongnengzhankai" unicode="&#xe610;" 
d="M356 896h-227q-53 0 -91 -38t-38 -91v-227q0 -54 38 -92t91 -38h227q54 0 92 38t38 92v227q0 53 -38 91t-92 38zM434 540q0 -32 -23 -55t-55 -23h-227q-32 0 -54.5 23t-22.5 55v227q0 32 22.5 54.5t54.5 22.5h227q32 0 55 -22.5t23 -54.5v-227zM895 896h-227
q-54 0 -92 -38t-38 -91v-227q0 -54 38 -92t92 -38h227q53 0 91 38t38 92v227q0 53 -38 91t-91 38zM972 540q0 -32 -22.5 -55t-54.5 -23h-227q-32 0 -55 23t-23 55v227q0 32 23 54.5t55 22.5h227q32 0 54.5 -22.5t22.5 -54.5v-227zM356 358h-227q-53 0 -91 -38t-38 -92v-227
q0 -53 38 -91t91 -38h227q54 0 92 38t38 91v227q0 54 -38 92t-92 38zM434 1q0 -32 -23 -54.5t-55 -22.5h-227q-32 0 -54.5 22.5t-22.5 54.5v227q0 32 22.5 55t54.5 23h227q32 0 55 -23t23 -55v-227zM895 358h-227q-54 0 -92 -38t-38 -92v-227q0 -53 38 -91t92 -38h227
q11 0 18.5 7.5t7.5 18.5t-7.5 18.5t-18.5 7.5h-227q-32 0 -55 22.5t-23 54.5v227q0 32 23 55t55 23h227q32 0 54.5 -23t22.5 -55v-227q0 -11 7.5 -18.5t18.5 -7.5t18.5 7.5t7.5 18.5v227q0 54 -38 91.5t-91 38.5z" />
    <glyph glyph-name="icon-shangpinguanli" unicode="&#xe612;" 
d="M997 232h-115v0q-4 0 -7.5 3t-3.5 8v305v0q0 4 3 8l142 141q8 8 8 19.5t-8 18.5l-141 142q-14 13 -29 13t-21.5 -4.5t-10.5 -8.5l-131 -130q-3 -4 -7 -4v0h-305v0q-5 0 -8 3.5t-3 7.5v115v0q0 11 -8 19t-19 8v0h-306q-11 0 -19 -8t-8 -19v-305q0 -12 8 -19.5t19 -7.5h115
v0q4 0 7.5 -3.5t3.5 -8.5v0v-286q0 -9 -9 -11q-60 -12 -102 -63.5t-42 -112.5q0 -75 52.5 -127.5t127 -52.5t127.5 52.5t53 127.5q0 61 -42.5 112.5t-101.5 63.5q-9 2 -9 11v0v286v0q0 5 3 8.5t8 3.5v0h115v0q11 0 19 7.5t8 18.5v1v114v0q0 5 3 8t8 3v0h305v0q4 0 7 -3
l131 -130q3 -4 3 -8v-305v0q0 -5 -3 -8t-8 -3v0h-115v0q-11 0 -19 -8t-8 -20v-305q0 -11 8 -19t19 -8h306q11 0 19 8t8 19v305q0 12 -8 19.5t-19 8.5zM307 52v0q0 -53 -37.5 -90t-90 -37t-89.5 37t-37 89.5t37 90t89.5 37.5t90 -37.5t37.5 -89.5v0zM307 602v0q0 -5 -3.5 -9
t-9.5 -4v0h-229v0q-5 0 -8.5 4t-3.5 9v0v229v0q0 5 3.5 8.5t8.5 3.5v0h229v0q6 0 9.5 -3.5t3.5 -8.5v0v-229zM737 707q-4 4 -4 9.5t4 8.5l98 99q4 4 9 4t9 -4l99 -99q4 -3 4 -8.5t-4 -9.5l-99 -98q-4 -4 -9 -4t-9 4zM971 -63v0q0 -5 -3.5 -8.5t-8.5 -3.5v0h-229v0
q-6 0 -9.5 3.5t-3.5 8.5v0v229v0q0 6 3.5 9.5t9.5 3.5v0h229v0q5 0 8.5 -3.5t3.5 -9.5v0v-229z" />
    <glyph glyph-name="icon-dingdanguanli" unicode="&#xe613;" 
d="M597 393h-407q-5 0 -9 -4t-4 -9t4 -9t9 -4h407q5 0 9 4t4 9t-4 9t-9 4zM597 228h-407q-5 0 -9 -4t-4 -9.5t4 -9t9 -3.5h407q5 0 9 3.5t4 9t-4 9.5t-9 4zM190 566q-5 0 -9 -4t-4 -9.5t4 -9t9 -3.5h160q6 0 9.5 3.5t3.5 9t-3.5 9.5t-9.5 4h-160zM504 -76h-452v920h392v-273
q0 -9 6 -15t15 -6h284l2 -2v-153v0q0 -11 8 -18.5t18.5 -7.5t18 7.5t7.5 18.5v0v164v0q0 11 -8 18l-311 311q-7 8 -18 8v0h-419q-20 0 -33.5 -13.5t-13.5 -32.5v-932q0 -19 13.5 -32.5t33.5 -13.5h457q10 0 17.5 7.5t7.5 18.5t-7.5 18.5t-17.5 7.5zM485 814l223 -223h-223
v223zM643 -116q2 -12 14 -12h3l86 14l-118 85zM1006 321l-50 36q-11 8 -24 8q-21 0 -34 -17l-252 -353l117 -84l253 352q8 11 8 24q0 22 -18 34z" />
    <glyph glyph-name="icon-wuliuguanli" unicode="&#xe615;" 
d="M994 422h-209q-4 16 -9 32l-8 22q-3 10 -7 19q-4 11 -9 22l-11 25q-12 27 -27 58q60 41 137 99l10 7q16 12 27 33.5t11 40.5q0 29 -17 53q-9 13 -26.5 23.5t-32.5 12.5q-7 2 -15 2q-29 0 -53 -18l-11 -7q-80 -56 -137 -99q-19 18 -37 35l-22 20l-28 24l-3 2l-2 2
q-2 1 -7 5t-9 7l-4 3q-57 43 -95 50q-6 1 -13 1q-20 0 -37 -12q-10 -7 -18 -20.5t-10 -25.5q-1 -6 -1 -11q0 -24 14 -43l125 -156q-33 -28 -62 -61q-27 15 -58 22q-5 1 -9 1q-16 0 -29 -8q-16 -12 -19 -31v-7q0 -16 9 -29l54 -68l17 -25h-48q-13 0 -21.5 -9t-8.5 -21v-36
h-188v0q-9 0 -17 -6t-11 -14l-67 -190q-2 -4 -2 -9v-1v-163q0 -12 9 -21t21 -9h45q10 -29 38 -50t59 -21t59.5 21t37.5 50h110q10 -29 38.5 -50t59 -21t59 21t38.5 50h160q10 -29 38.5 -50t59 -21t59 21t38.5 50h65q12 0 21 9t9 21v419q0 12 -9 21t-21 9zM112 301h75v-138
h-122zM172 -80q-22 0 -38 16t-16 38.5t16 38.5t38.5 16t38.5 -16t16 -38v0q0 -23 -16 -39t-39 -16v0zM285 3h-15q-8 31 -37 52.5t-61 21.5t-60.5 -21.5t-37.5 -52.5h-19v112h156v0q10 0 17 7t7 17v162h50v-298zM332 542h1q17 -2 60 -26q5 -4 12 -4q12 0 19 10q23 32 85 85
q8 7 8 18q0 8 -5 15l-139 173q-4 6 -4 14v3q1 10 9 16q4 2 9 2h5q27 -6 73 -40q17 -14 22 -17l4 -3q8 -7 25 -22l21 -20q25 -23 50 -48q7 -7 17 -7q8 0 15 5q64 48 153 110l11 8q11 8 25 8q18 0 30.5 -12.5t12.5 -29.5q0 -22 -18 -35l-11 -8q-90 -67 -153 -110
q-10 -7 -10 -20q0 -5 2 -11q22 -41 36 -73l11 -25l8 -20q3 -6 7 -18l7 -21q2 -4 5 -17h-74l-78 120q-7 11 -21 11q-6 0 -12 -3q-71 -42 -107 -53q-7 -3 -12 -9.5t-5 -13.5q0 -3 1 -5q5 -23 7 -47h-14l-35 53zM604 422h-122q-1 18 -4 36q40 17 77 39zM477 -80v0q-23 0 -39 16
t-16 38.5t16 38.5t38.5 16t38.5 -16t16 -38v0q0 -23 -16 -39t-38 -16v0zM832 -80v0q-23 0 -39 16t-16 38.5t16 38.5t38.5 16t38.5 -16t16 -38v0q0 -23 -16 -39t-38 -16v0zM968 4l-38 -1q-9 31 -37.5 52.5t-60.5 21.5t-61 -21.5t-37 -52.5h-159q-9 31 -38 52.5t-60.5 21.5
t-60.5 -21.5t-37 -52.5h-39v366l628 1v-366zM707 261h172q6 0 10.5 4.5t4.5 10t-4.5 10t-10.5 4.5h-172q-6 0 -10 -4.5t-4 -10t4 -10t10 -4.5zM627 181h172q6 0 10 4.5t4 10t-4 10t-10 4.5h-172q-6 0 -10.5 -4.5t-4.5 -10t4.5 -10t10.5 -4.5z" />
    <glyph glyph-name="icon-huiyuanguanli" unicode="&#xe616;" 
d="M294 241v0q0 11 -7.5 19t-18.5 8h-214l4 18q2 5 3 8q3 8 8 17q2 4 4 7q1 1 2 2.5l2 3l1 1.5q3 5 6 8t6 7l2 1q3 3 6 5q3 3 8 7q2 2 7 6q9 6 18 11h1q17 9 36 13q8 3 13.5 10.5t5.5 15.5q0 16 -14 24q-18 10 -31 32t-13 43v1q0 35 24 60t58 25t58 -25t24 -60v-1
q0 -20 -12.5 -42t-30.5 -32q-13 -8 -13 -23v-4q2 -8 9 -14t15 -7q19 -1 45 25q17 17 28.5 45.5t11.5 51.5v1q0 57 -39.5 97.5t-95.5 40.5t-95.5 -40.5t-39.5 -97.5v-1q0 -21 9.5 -47.5t23.5 -42.5l-1 -1h-1q-11 -6 -22 -13q-8 -6 -10 -8q-6 -4 -11 -9q-4 -3 -9 -8l-2 -2
q-3 -4 -7 -7l-1 -2q-5 -6 -8 -9q-6 -9 -7 -10l-1 -2q-3 -4 -5 -9q-7 -11 -12 -23v-3l-4 -10q-4 -12 -6 -24v-3q-1 -5 -1 -9v-3q-1 -4 -1 -12v-10v0q0 -11 8 -19t18 -8h242q11 0 18.5 8t7.5 19v0zM1024 263v3q-1 4 -2 9v3q-2 12 -6 24q-1 5 -3 11l-1 2q-5 12 -11 23
q-3 5 -6 9l-1 2q-3 4 -7 10q-2 2 -4.5 5t-2.5 4l-2 2q-3 3 -6 7l-3 2q0 1 -9 9l-10 8q-3 3 -11 8q-10 7 -22 13v0l-1 1q13 16 23 42.5t10 48.5v0q0 57 -39.5 98t-95.5 41t-95.5 -41t-39.5 -98v0q0 -24 11.5 -52.5t27.5 -45.5q26 -26 45 -24q9 0 16 6t8 14v4q0 16 -13 23
q-18 11 -30.5 32.5t-12.5 42.5v0q0 35 24.5 60t58.5 25t58 -25t24 -60v-1q0 -21 -13 -43t-32 -32q-14 -7 -14 -23q0 -9 5.5 -16.5t14.5 -9.5q18 -5 36 -14v0q10 -5 18 -11l8 -6q3 -2 8 -6l3 -3l2 -2l2 -2l6 -6l6 -8l6 -8q2 -3 4 -7q4 -8 8 -17q1 -3 3 -8l4 -18h-214
q-11 0 -19 -7.5t-8 -18.5t8 -19t19 -8h241q11 0 19 8t8 19v0v9q-1 2 -1 6.5v5.5zM648 154q-2 1 -2 3v1q0 2 1 3q20 23 34.5 60.5t14.5 68.5v0q0 79 -54 134.5t-130.5 55.5t-131 -55.5t-54.5 -134.5v-1q0 -31 16 -70t38 -62q1 -1 1 -3q0 -3 -3 -4q-6 -3 -11 -5l-2 -1
q-16 -8 -30 -18l-3 -2q-7 -5 -12 -9l-2 -2q-8 -5 -15 -12q-7 -6 -10 -10l-4 -3q-4 -4 -9 -11l-2 -2l-12 -14l-8 -12l-2 -3q-4 -6 -9 -14q-8 -15 -14 -31l-1 -2l-6 -16q-5 -17 -8 -33v-4q-1 -7 -2 -13v-4q-1 -10 -1 -17v-14q0 -11 7.5 -18.5t18.5 -7.5h555v0q10 0 17.5 7.5
t7.5 18.5v14q0 28 -7 55q-14 61 -58 110.5t-108 76.5zM768 -75.5q-1 -1.5 -3 -1.5h-493q-2 0 -3.5 1.5t-1.5 3.5v0q1 5 2 11v2q2 14 6 27q2 7 5 14q5 13 12 25q3 6 6 10l2 3q4 5 8 11q5 6 9 11l1 2l4 4t5 4l1 2l10 10q5 4 13 10q6 4 12 9q13 8 26 15q27 14 56 21
q8 2 13.5 9.5t5.5 15.5q0 16 -13 23q-31 16 -52 52t-21 70v1q0 58 39 98.5t94.5 40.5t94.5 -40.5t39 -98.5v-1q0 -33 -20 -68t-49 -52q-13 -7 -13 -22v-4q1 -7 7 -13.5t13 -7.5q69 -16 118 -61.5t64 -106.5q3 -13 4 -26v0q0 -2 -1 -3.5zM442 643q6 -4 14 -4q15 0 23 13
q4 7 4 15q0 15 -13 23q-16 10 -27.5 30.5t-11.5 39.5q0 33 23.5 57t57.5 24t57.5 -24t23.5 -57q0 -19 -11 -39.5t-27 -30.5q-11 -8 -11 -22q0 -11 8 -19t19 -8q7 0 12 3q27 17 46 50.5t19 65.5q0 56 -40 95.5t-96 39.5t-96 -39.5t-40 -95.5q0 -32 19.5 -66t46.5 -51v0z" />
    <glyph glyph-name="icon-weixinguanli" unicode="&#xe618;" 
d="M265 594q-21 0 -37 -12.5t-16 -32t16 -32.5t37 -13q20 0 32 12.5t12 33t-12 32.5t-32 12zM513 504q20 0 32 12.5t12 33t-12 32.5t-32 12q-21 0 -37 -12.5t-16 -32t16 -32.5t37 -13zM760 482q-29 114 -137 189t-243 75q-103 0 -190.5 -45t-138.5 -122t-51 -168
q0 -148 137 -255l-29 -91q-2 -4 -2 -8q0 -12 9 -20q7 -6 17 -6q6 0 12 2l115 60l12 -3q78 -16 130 -13q39 -76 119 -122.5t177 -46.5q38 0 103 17l88 -50q6 -3 13 -3q9 0 16 6q10 8 10 21q0 3 -1 7l-22 74q120 99 120 218q0 103 -76 183.5t-188 100.5zM380 129q-35 0 -98 13
l-21 5h-5q-6 0 -11 -3l-68 -35l15 49q2 4 2 8q0 14 -11 22q-131 93 -131 223q0 76 44 141t119.5 103t164.5 38q110 0 200 -56t122 -144q-34 0 -80 -11.5t-76 -27.5q-80 -37 -128 -105.5t-48 -150.5q0 -35 10 -69v0zM859 10q-11 -8 -11 -21q0 -4 1 -8l9 -28l-42 23
q-6 3 -12 4q-3 0 -6 -1q-68 -18 -100 -18q-93 0 -166.5 48.5t-98.5 123.5q-5 23 -5 47q0 72 39 133t103 95q25 11 62 19t65 8h1q111 0 192.5 -70.5t81.5 -166.5q0 -100 -113 -188zM600 345q-14 0 -25 -11.5t-11 -25t11 -24.5t25 -11q19 0 31.5 11t12.5 25t-12.5 25t-31.5 11
zM794 345q-13 0 -24 -11.5t-11 -25t11 -24.5t24 -11q20 0 32.5 11t12.5 25t-12.5 25t-32.5 11zM861 896l52 -54q-36 -15 -60 -45.5t-34 -62.5t-14 -62t-4 -50l1 -19q31 57 60 95t49 52t36 19.5t24 2.5l7 -2l46 -56v182h-163z" />
    <glyph glyph-name="icon-youhuiquanguanli" unicode="&#xe619;" 
d="M1024 12v823q0 25 -17 42q-20 19 -47 19h-1h-270h-1q-21 0 -39.5 -14.5t-23.5 -35.5q-8 -38 -40 -62.5t-73 -24.5t-73 25t-40 62q-5 21 -23.5 35.5t-39.5 14.5h-1h-270q-27 0 -46 -18t-19 -43v-902q0 -25 19 -43t46 -18h894q27 0 46 18t19 43v79zM964 141q0 -5 -5 -5
l-4 1q-3 1 -6 1h-93q-20 0 -33.5 -10.5t-13.5 -25.5t13.5 -25.5t33.5 -10.5h93q3 0 6 1l4 1v0q4 0 4 -4v-69q0 -20 -2.5 -32t-13.5 -23t-30 -11h-800q-31 0 -43.5 12.5t-12.5 42.5v79q0 4 4 4h3q2 -1 3 -1h93h2q20 0 35 14q10 9 10 22q0 15 -13.5 25.5t-33.5 10.5h-93h-3
q-1 -1 -3 -1v0q-5 0 -5 4v660v0q0 16 11.5 27.5t27.5 11.5h1l210 -1v0q11 0 21.5 -7.5t14.5 -17.5q18 -50 64 -80.5t102 -30.5t102 30.5t64 80.5q4 11 14.5 18t21.5 7h1h210v0q16 0 27 -11t12 -27v-660zM685 138h-92q-20 0 -33.5 -10.5t-13.5 -25.5t13.5 -25t33.5 -10h92
q20 0 33.5 10t13.5 25t-13.5 25.5t-33.5 10.5zM421 138h-93q-19 0 -32.5 -10.5t-13.5 -25.5t13.5 -25t32.5 -10h93q20 0 33.5 10t13.5 25t-13.5 25.5t-33.5 10.5zM657 328q1 1 2 1q7 2 12 9t5 14q0 10 -7 17t-17 7h-1h-112v0q-5 0 -5 5v44q0 4 5 4h118l2 2q7 2 12 8.5
t5 14.5q0 10 -7 17t-17 7h-1h-112v0q-5 0 -5 4v25q0 2 2 3l117 114l4 4q0 1 1 2q3 5 3 11v1q0 10 -7 17t-17 7v0h-1q-9 0 -16 -6l-107 -104q-1 -1 -2.5 -1t-3.5 1l-113 110q-7 6 -16 6q-10 0 -17 -7.5t-7 -17.5q0 -6 3 -12q1 -1 1 -2l126 -122q1 -1 1 -3v-25q0 -5 -4 -5
h-118q-1 -1 -2 -1q-7 -2 -11.5 -9t-4.5 -14t4.5 -14t11.5 -9q1 0 2 -1h118v0q4 0 4 -5v-44q0 -4 -4 -4h-118l-2 -2q-7 -2 -12 -8.5t-5 -14t5 -14.5t12 -9q1 0 2 -1h118v0q4 0 4 -5v-115q1 -1 1 -2q3 -7 9.5 -12t14 -5t14.5 5t9 12q1 1 1 2v115q0 5 5 5h112h6z" />
    <glyph glyph-name="icon-shangjiazhongxin" unicode="&#xe61b;" 
d="M212 634q-6 -3 -11 -7l-1 -1q-3 -1 -5 -3v0q-3 -2 -5 -4l-1 -1q-2 -1 -4 -4l-1 -1q-2 -1 -3 -3l-1 -1q-2 -2 -4 -5v0q-2 -2 -3 -5l-1 -1q-1 -2 -3 -4v-1q-3 -5 -5 -11v-1q-1 -2 -2 -5v0q-2 -6 -3 -12v-1q-1 -3 -1 -5v-13h221v6q0 10 -3 19q-6 27 -27.5 47t-52.5 27
q14 8 23.5 24.5t9.5 32.5v0q0 26 -18.5 45t-45 19t-45 -19t-18.5 -45v0q0 -16 10 -33t24 -25q-12 -3 -24 -9v0zM1017 277v0q-2 14 -14 23.5t-26 9.5q-6 18 -14 34q12 12 12 29q0 12 -7 23q-15 23 -43.5 51t-51.5 44q-11 7 -23 7q-17 0 -29 -12q-16 8 -34 14q0 14 -9.5 26
t-23.5 14q-33 7 -67.5 7t-67.5 -7q-13 -2 -23 -14t-10 -26q-17 -6 -34 -14q-12 12 -29 12q-12 0 -23 -6q-23 -16 -51 -44t-44 -52q-7 -11 -7 -23q0 -17 12 -29q-8 -16 -14 -34q-14 0 -25.5 -9.5t-14.5 -23.5q-7 -33 -7 -67t7 -68q3 -13 14.5 -23t25.5 -10q6 -17 14 -34
q-12 -12 -12 -29q0 -12 7 -22q15 -24 43 -52t52 -44q11 -6 23 -6q17 0 29 11q16 -8 34 -14q0 -14 9.5 -25.5t23.5 -14.5q33 -7 67 -7t68 7q13 3 22.5 14.5t10.5 25.5q17 6 34 14q12 -11 29 -11q12 0 22 6q24 16 52 44t44 52q7 10 7 22q0 17 -12 29q8 17 14 35q14 0 25.5 9.5
t14.5 23.5q7 33 7 67t-7 67v0zM968 162h-10q-8 0 -15.5 -6t-9.5 -14q-9 -31 -25 -59q-3 -6 -3 -13q0 -11 7 -19l7 -6q-11 -17 -31 -37t-37 -31l-6 7q-8 7 -19 7q-7 0 -13 -3q-28 -16 -59 -25q-8 -2 -13.5 -9.5t-5.5 -15.5v-10q-24 -4 -48.5 -4t-47.5 4v10v0q0 8 -6 15.5
t-14 9.5q-31 9 -59 25q-6 3 -13 3q-11 0 -19 -7l-6 -7q-17 11 -37 31t-31 37l7 6q7 8 7 19q0 7 -3 13q-16 28 -25 59q-2 8 -9.5 14t-15.5 6v0h-10q-4 23 -4 47.5t4 48.5h10v0q8 0 15.5 5.5t9.5 13.5q8 31 25 59q3 6 3 13q0 11 -8 19l-6 6q11 17 31 37t37 31l6 -6q8 -8 19 -8
q7 0 13 3q28 17 59 25q8 2 13.5 9.5t5.5 15.5v0v10q24 4 48.5 4t47.5 -4v-10q0 -8 6 -15.5t14 -9.5q31 -9 59 -25q6 -3 13 -3q11 0 19 8l6 6q17 -11 37 -31t31 -37l-7 -6q-7 -8 -7 -19q0 -7 3 -13q16 -28 25 -59q2 -8 9.5 -14t15.5 -6v0h10q4 -23 4 -47.5t-4 -48.5v1z
M686 364v0q-63 0 -108.5 -45.5t-45.5 -109t45.5 -109t109 -45.5t109 45.5t45.5 109t-45.5 109t-109.5 45.5zM686 97v0q-46 0 -79 33t-33 79.5t33 79.5t79.5 33t79.5 -33t33 -79.5t-33 -79.5t-80 -33v0zM279 71h-208v0q-8 0 -14 6t-6 14v734q0 9 6 15t14 6h670v0q9 0 15 -6
t6 -15v-179q0 -11 7 -18.5t17.5 -7.5t18 7.5t7.5 18.5v179q0 29 -21 50t-50 21h-670q-29 0 -50 -21t-21 -50v-734q0 -29 21 -50t50 -21h208q10 0 17.5 7.5t7.5 18t-7.5 18t-17.5 7.5v0z" />
    <glyph glyph-name="icon-bangzhuzhongxin" unicode="&#xe61c;" 
d="M874 896h-724q-62 0 -106 -44.5t-44 -106.5v-470q0 -60 42.5 -104t101.5 -47l-45 -188q-2 -7 -2 -14q0 -12 7 -24.5t17 -18.5q11 -7 25 -7q21 0 35 15l193 237h500q62 0 106 44.5t44 106.5v470q0 62 -44 106.5t-106 44.5zM972 275q0 -41 -28.5 -70t-69.5 -29h-511v0
q-11 0 -18 -8l-194 -238l53 212q1 4 1 8q0 8 -5 15q-8 11 -21 11v0h-29q-41 0 -69.5 29t-28.5 70v470v0q0 41 28.5 70t69.5 29h724q41 0 69.5 -29t28.5 -70v-470zM509 378h-1q-17 0 -28 -12q-12 -13 -12 -30v-1v-2q0 -18 13 -30q11 -12 27 -12h1v0q16 0 27 12q12 12 12 30v2
v1q0 17 -11 30q-11 12 -28 12v0zM583 716q-30 16 -65 16h-2.5h-3.5q-37 0 -69 -19q-13 -7 -26.5 -21t-21.5 -26q-15 -26 -16 -56q0 -15 10 -25q10 -11 25 -11h1q25 0 34 33q7 26 23 47q14 16 43 16h3q22 0 38 -16q16 -15 16 -38v-1v0q0 -12 -5 -22t-12.5 -18.5t-24.5 -24.5
q-17 -15 -31 -32q-12 -14 -19 -32q-7 -19 -7 -39v-3q0 -19 10 -29q9 -10 22 -10h1q26 0 32 30q3 14 4 20q3 13 12 24q7 8 15 16l45 45q13 15 22 33q9 19 9 41v2v1q0 31 -16 57q-7 11 -20.5 23.5t-25.5 18.5z" />
    <glyph glyph-name="icon-anquantuichu" unicode="&#xe61d;" 
d="M899 108h-1q-19 0 -26.5 -8t-7.5 -29v-138h-803v902h803v-148q0 -17 3 -27t8.5 -14t9 -5t9.5 -1q31 0 31 47v142q0 28 -19.5 47.5t-47.5 19.5h-811q-47 0 -47 -67v-890q0 -28 19.5 -47.5t47.5 -19.5v0h791v0q28 0 47.5 19.5t19.5 47.5v135q0 22 -6.5 28t-19.5 6z
M1016 404l-143 155q-9 9 -22 11q-27 0 -27 -19q-1 -1 -1 -2q0 -10 8 -17l93 -106h-511q-12 0 -20.5 -7.5t-8.5 -19.5t8.5 -20.5t20.5 -8.5h507l-83 -115q-14 -15 -14 -26t8.5 -19.5t20.5 -8.5v0v0q12 0 21 8l143 155q8 8 8 20t-8 20v0z" />
    <glyph glyph-name="icon-huishouzhan" unicode="&#xe61e;" 
d="M997 791h-258l-100 97q-8 8 -19 8h-216v0q-11 0 -19 -8l-100 -97h-258q-11 0 -18.5 -7.5t-7.5 -18.5t7.5 -19t18.5 -8h269h1q11 0 19 8l99 97h194l100 -97q7 -8 19 -8h269q11 0 18.5 8t7.5 19t-7.5 18.5t-18.5 7.5v0zM889 607v0q-11 0 -19 -7.5t-8 -18.5v-604
q0 -22 -15.5 -37t-37.5 -15h-1h-592h-1q-22 0 -37.5 15t-15.5 37v604q0 11 -8 19t-19 8t-19 -8t-8 -19v-604q0 -43 31.5 -74t76.5 -31h592q45 0 76.5 31t31.5 74v604q0 11 -8 18.5t-18 7.5h-1v0zM404 56v525q0 11 -8 19t-19 8t-19 -8t-8 -19v-525q0 -11 8 -19t19 -8t19 8
t8 19zM674 56v525q0 11 -8 19t-19 8t-19 -8t-8 -19v-525q0 -11 8 -19t19 -8t19 8t8 19zM674 56z" />
    <glyph glyph-name="icon-jiesuanguanli" unicode="&#xe620;" 
d="M543 462l1 1v68q0 3 2 3h67h3q1 0 1 1q10 3 10 13q0 6 -4 10.5t-10 4.5v0h-67v0q-2 0 -2 2v27q0 2 2 2h67h3l1 1q10 3 10 14q0 6 -4 10t-10 4v0h-67v0q-2 0 -2 3v14v2l70 68l2 2q0 1 1 1q2 4 2 8q0 6 -4.5 10t-10.5 4v0v0q-5 0 -10 -4l-63 -62h-2h-2l-66 66q-5 3 -10 3
q-6 0 -10.5 -4t-4.5 -10q0 -4 3 -8v-1l75 -72v-2v-15q0 -3 -2 -3h-70q-1 0 -1 -1q-10 -3 -10 -13.5t10 -13.5l1 -1h70q2 0 2 -2v-27q0 -2 -2 -2h-70l-1 -1q-10 -3 -10 -13.5t10 -13.5q0 -1 1 -1h70q2 0 2 -3v-68l1 -1q3 -10 14 -10t14 10v0zM848 76v97h97v204h-254
q51 35 87 103.5t36 130.5q0 118 -83.5 201.5t-201.5 83.5t-201 -83.5t-83 -201.5q0 -62 35.5 -130.5t86.5 -103.5h-250v-150h-117v-205h171v-150h853v204h-176zM298 611.5q0 95.5 68 163t163.5 67.5t163 -68t67.5 -163.5t-67.5 -163t-163 -67.5t-163.5 68t-68 163.5z
M171 323h720v-96h-720v96zM54 76v97h740v-97h-740zM970 -74h-746v96h746v-96z" />
    <glyph glyph-name="icon-mendianguanli" unicode="&#xe621;" 
d="M970 -76h-30v530q30 21 54.5 60t29.5 75h-1q1 2 1 5q0 5 -2 10l-125 277q-7 15 -24 15h-722q-17 0 -24 -15l-125 -277q-2 -5 -2 -10q0 -3 1 -5h-1q5 -36 29.5 -75t54.5 -60v-530h-30q-11 0 -18.5 -7.5t-7.5 -18.5t7.5 -18.5t18.5 -7.5h916q11 0 18.5 7.5t7.5 18.5
t-7.5 18.5t-18.5 7.5zM857 844l101 -225h-266l-36 225h201zM420 844h184l36 -225h-256zM642 568q-13 -39 -51 -66t-79 -27t-79 27t-51 66h260zM167 844h201l-36 -225h-266zM59 568h259q-13 -39 -51 -66t-78 -27q-41 0 -79 27t-51 66zM889 -76h-522v2v313q0 6 -3.5 9.5
t-9 3.5t-9.5 -3.5t-4 -9.5v-313q1 -1 1 -2h-207v506q26 -8 54 -8q44 0 91 27t70 65q23 -38 70.5 -65t91.5 -27t91.5 27t70.5 65q23 -38 70 -65t91 -27q28 0 54 8v-506zM835 475q-40 0 -78 27t-51 66h259q-13 -39 -51 -66t-79 -27zM665 100l48 75q5 8 -6.5 15.5t-16.5 -0.5
l-48 -75q-5 -8 6 -15.5t17 0.5zM738 135q-3 2 -7 2q-7 0 -11 -6l-67 -103q-2 -4 -2 -8q0 -7 7 -11q3 -2 7 -2q7 0 11 6l66 103q3 3 3 7q0 8 -7 12z" />
    <glyph glyph-name="icon-daochubaobiao" unicode="&#xe622;" horiz-adv-x="1028" 
d="M357 761l51 -60v195h-181l58 -58q-40 -17 -66.5 -49t-37.5 -66.5t-15.5 -66.5t-4 -52.5l0.5 -20.5q91 165 169 179q17 3 26 -1zM1002 803h-1q-10 0 -18 -7.5t-8 -18.5v-853h-922v853q0 11 -8 18.5t-18 7.5h-1v0q-11 0 -18.5 -7.5t-7.5 -18.5v-879q0 -11 7.5 -18.5
t18.5 -7.5v0h976v0q11 0 18.5 7.5t7.5 18.5v879q0 11 -7.5 18.5t-18.5 7.5v0zM662 660v0q11 0 18.5 8t8.5 18v184q-1 10 -8.5 17.5t-18.5 7.5t-18.5 -7.5t-7.5 -17.5v-184q0 -10 7.5 -18t18.5 -8v0zM840 660v0q11 0 18.5 8t7.5 18v183q0 11 -7.5 18.5t-18.5 7.5t-18.5 -7.5
t-8.5 -18.5v-183q0 -10 8 -18t19 -8v0zM188 477h652v0q11 0 18.5 8t7.5 18.5t-7.5 18.5t-18.5 8v0h-652v0q-11 0 -18.5 -8t-7.5 -18.5t7.5 -18.5t18.5 -8v0zM188 267h652v0q11 0 18.5 8t7.5 18.5t-7.5 18.5t-18.5 8v0h-652v0q-11 0 -18.5 -8t-7.5 -18.5t7.5 -18.5t18.5 -8v0
zM188 58h652v0q11 0 18.5 7.5t7.5 18.5t-7.5 18.5t-18.5 7.5v0h-652v0q-11 0 -18.5 -7.5t-7.5 -18.5t7.5 -18.5t18.5 -7.5v0z" />
    <glyph glyph-name="icon-tianjia" unicode="&#xe623;" 
d="M993 413h-454v453v1q0 12 -8 20.5t-20 8.5t-20.5 -8.5t-8.5 -20.5v-1v-453h-453q-12 0 -20.5 -8.5t-8.5 -20.5t8.5 -20.5t20.5 -8.5h453v-453v-1q0 -12 8.5 -20.5t20.5 -8.5t20 8.5t8 20.5v1v453h454q12 0 20.5 8.5t8.5 20.5t-8.5 20.5t-20.5 8.5z" />
    <glyph glyph-name="icon-wangzhanguanli" unicode="&#xe625;" 
d="M716 69l14 14q10 10 10 24q0 12 -8.5 22t-21.5 11l-160 19q-2 1 -5 1q-13 0 -23 -10t-10 -24v-4l19 -160q2 -13 11.5 -21.5t22.5 -8.5q14 0 24 10l14 14l73 -74q10 -10 24 -10t24 10l66 66q10 10 10 24t-10 23zM700 -83l-83 82q-6 7 -14.5 7t-14.5 -7l-17 -17l-17 135
l136 -16l-18 -17q-6 -6 -6 -14.5t6 -14.5l83 -83zM1024 870v0q0 11 -7.5 18.5t-18.5 7.5v0h-972q-11 0 -18.5 -7.5t-7.5 -18.5v-144v-1.5v-0.5v-0.5v-0.5v-681q0 -11 7.5 -18.5t18.5 -7.5h403q10 0 18 7.5t8 18t-8 18.5t-18 8h-377v629h920v-629h-109q-11 0 -18.5 -8
t-7.5 -18.5t7.5 -18t18.5 -7.5h135v0q11 0 18.5 7.5t7.5 18.5v681v0.5v1v0.5v1v144zM972 751h-920v93h920v-93zM239 540h-122q-6 0 -10 -4t-4 -10t4 -9.5t10 -3.5h122q6 0 10 3.5t4 9.5t-4 10t-10 4zM239 634h-122q-6 0 -10 -3.5t-4 -9.5t4 -10t10 -4h122q6 0 10 4t4 10
t-4 9.5t-10 3.5zM239 445h-122q-6 0 -10 -4t-4 -9.5t4 -9.5t10 -4h122q6 0 10 4t4 9.5t-4 9.5t-10 4zM474 245h-123q-5 0 -9 -4t-4 -10t4 -10t9 -4h123q5 0 9 4t4 10t-4 10t-9 4zM865 369h-514q-5 0 -9 -4t-4 -9.5t4 -9.5t9 -4h514q6 0 10 4t4 9.5t-4 9.5t-10 4zM338 638
h541v-163h-541v163zM124 795zM103 795.5q0 -8.5 6 -14.5t15 -6t15 6t6 14.5t-6 14.5t-15 6t-15 -6t-6 -14.5zM183 795zM163 795.5q0 -8.5 6 -14.5t14.5 -6t14.5 6t6 14.5t-6 14.5t-14.5 6t-14.5 -6t-6 -14.5zM243 795zM222 795.5q0 -8.5 6 -14.5t14.5 -6t14.5 6t6 14.5
t-6 14.5t-14.5 6t-14.5 -6t-6 -14.5z" />
    <glyph glyph-name="icon-guanbi" unicode="&#xe626;" horiz-adv-x="1025" 
d="M568 384l444 444q11 11 11 27q0 17 -11.5 28.5t-28.5 11.5q-16 0 -27 -11l-444 -444l-444 444q-12 12 -28 12q-17 0 -28.5 -11.5t-11.5 -28.5q0 -16 12 -28l444 -444l-444 -444q-11 -12 -11 -28t11.5 -27.5t27.5 -11.5t28 11l444 444l444 -444q12 -12 28 -12
q17 0 28.5 11.5t11.5 28.5q0 16 -12 28z" />
    <glyph glyph-name="icon-dianyuanguanli" unicode="&#xe627;" 
d="M512 896q-139 0 -257 -68.5t-186.5 -186.5t-68.5 -257t68.5 -257t186.5 -186.5t257 -68.5t257 68.5t186.5 186.5t68.5 257q0 104 -40.5 198.5t-109.5 163.5t-163.5 109.5t-198.5 40.5zM512 -76q-94 0 -179 36.5t-146.5 98t-98 146.5t-36.5 179t36.5 179t98 146.5
t146.5 98t179 36.5t179 -36.5t146.5 -98t98 -146.5t36.5 -179t-36.5 -179t-98 -146.5t-146.5 -98t-179 -36.5zM787 210q0 5 -2 10q-15 28 -33 37l-32 16q-11 6 -24 8q-6 1 -12 3q-10 5 -21 7q-6 1 -11 3q-10 5 -19 11q-4 4 -7 9q-2 4 -5 8q-2 3 -2 6v1v15q1 2 3 7v2
q6 7 15 11q8 4 12 13q10 8 12 21v1q5 8 5 17q0 1 0.5 2.5t1.5 2.5v2q5 4 7 10q3 5 5 11q7 11 7 32v37q0 14 -3 28q-2 9 -2 19q0 20 -12 55q-8 26 -24 49q-1 2 -3 4q-12 12 -28 20q-2 2 -5 2q-7 6 -17 6h-8l-1 1q-8 13 -23 15q-5 2 -9 4q-12 6 -37 6h-32v0q-6 0 -11 -2
q-4 -2 -8 -3q-11 -3 -20 -11l-25 -12q-15 -9 -25 -23q-4 -4 -8 -9q-15 -15 -27 -52q-9 -22 -12 -46q-5 -19 -5 -38v-2q-5 -9 -5 -20v-2v-16q1 -9 4 -18q1 -3 1 -4q1 -10 6 -18q2 -14 11 -24q2 -7 5 -13q1 -8 5 -16q1 -8 7 -14l10 -10l8 -8q5 -3 8 -7q2 -3 5 -6l3 -3v-13
q-4 -6 -5 -13l-3 -3l-18 -18q-13 -7 -26 -12q-19 -1 -37 -8l-9 -4q-27 -7 -46 -27q-28 -27 -29 -52q-5 -29 -5 -58v-8q0 -3 1 -6l3 -12q5 -23 14 -32q14 -12 33 -12v0l10 -2q13 -3 27 -4q10 0 20 -2q14 -3 28 -3q13 0 26 -3l22 -2q21 -5 43 -5h8h84q18 0 34 3q10 2 19 2
q15 0 30 3q11 2 22 2q15 1 28 3q10 2 20 3q4 0 8 1q8 2 15 4q13 2 25 8q3 1 5 3l2 1q21 8 23 26v0q4 9 5 18q6 13 6 27v32q-1 12 -5 24q0 2 -1 4zM741 150q0 -5 -3 -9q-2 -6 -2 -12v0q0 -2 -2 -4v-1q-4 -2 -7 -4q-5 -2 -11 -3q-10 -2 -17 -4q-11 -1 -23 -3q-10 -2 -20 -2
q-15 -1 -29 -3q-12 -2 -23 -3q-13 0 -26 -2.5t-26 -2.5h-85h-7q-16 0 -32 4q-4 1 -13.5 2t-12.5 1q-17 3 -34 4q-10 0 -20 2q-14 3 -28 3q-8 0 -16 2q-9 2 -18 3v2.5t-1 2.5l-0.5 3.5t-1.5 5.5v5q0 25 5 50v5v0q0 5 14 19q11 11 26 14q4 2 10 4q12 5 24 6v0q4 0 8 1
q21 7 41 17q3 2 6 5l21 21q17 16 18 30q5 9 5 19v16v0q0 22 -15 37q-8 12 -20 21q-3 2 -4 2l-5 6l-3 6q-1 7 -4 13q-1 2 -1 5q0 10 -8 18l-3 4q-1 7 -5 13q-1 8 -4 15v2q-1 1 -1 2v9q5 7 5 15v1v7q0 16 4 32q1 4 1 8q0 8 9 34q9 25 15 32q6 6 12 13q3 4 8 8l31 16q4 2 7 5
q4 1 8 3h26q9 0 11 -1q5 -3 11 -4h1q3 -2 7 -3q2 -3 4 -5l3 -3q8 -10 21 -10v0h13q4 -3 10 -4q5 -3 9 -8q11 -16 18 -34q9 -28 9 -39q0 -14 3 -28q2 -9 2 -19v-42q-3 -5 -5 -10l-1 -1q-9 -7 -10 -19q0 -1 -1 -2v-2q-3 -7 -4 -15l-4 -10q-3 -3 -5 -6q-11 -7 -20 -17
q-9 -9 -12 -20l-4 -8q-2 -5 -2 -11v0v-21v-1q0 -17 8 -32q1 -3 4 -6q1 -1 1 -2q6 -11 15 -19q15 -13 33 -21q10 -5 21 -7q6 -1 11 -4q12 -5 25 -7q6 -1 11 -3l32 -16q5 -5 8 -11q0 -3 2 -8l2 -10v-32zM530 261h-31q-5 -6 -5 -11l-5 -5v-5q2 -3 4.5 -8t5.5 -8q1 -6 5 -10v-3
q0 -8 -5 -13q0 -3 -2.5 -11t-2.5 -10.5t-2.5 -10.5t-2.5 -10v-16q0 -6 5 -10q0 -3 2.5 -5.5t2.5 -5.5l11 -10v0q5 0 5 -6q6 1 10 6q3 0 5.5 2.5t5.5 2.5q5 5 5 10q0 3 2.5 5.5t2.5 5.5v15q0 3 -2.5 11t-2.5 10q0 6 -2.5 12.5t-2.5 8.5q-2 9 -5 16q5 0 5 11q0 5 10 15v11
q0 2 -2.5 5t-2.5 5q-11 0 -11 6z" />
    <glyph glyph-name="icon-jiageguanli" unicode="&#xe628;" 
d="M545 312h131q1 1 3 2q7 2 12.5 9.5t5.5 16.5q0 11 -7.5 19t-19.5 8v0h-125v0q-6 0 -6 5v27q0 2 2 3l131 128l4 4l1 2q4 7 4 14q0 12 -8 19.5t-19 7.5v0h-1q-10 0 -18 -6l-119 -117q-2 -1 -4 -1t-3 1l-126 123q-8 7 -19 7t-19 -8t-8 -19q0 -8 4 -15q1 -1 1 -2l141 -137
q1 -1 1 -3v-28q0 -5 -5 -5h-131l-2 -2q-8 -2 -14 -9.5t-6 -16t6 -16t14 -10.5q1 0 1 -1h132v0q6 0 6 -5v-50q0 -5 -6 -5h-131q-1 -1 -3 -1q-7 -2 -13 -10t-6 -16t6 -15.5t13 -10.5q2 0 2 -1h132v0q6 0 6 -5v-129q1 -1 1 -2q3 -8 10.5 -13.5t15.5 -5.5t16 5.5t10 13.5
q1 1 2 1v130q0 5 5 5h132l2 2q8 2 13.5 10t5.5 16q0 11 -8 19t-19 8h-1h-125v0q-6 0 -6 5v49q0 5 6 5zM929 825h-335l-71 71h-438q-42 -3 -63.5 -33t-21.5 -62v-834q0 -39 28 -67t67 -28v0h834v0q39 0 67 28t28 67v763q0 39 -28 67t-67 28v0zM972 -33q0 -18 -12.5 -30.5
t-30.5 -12.5v0h-834v0q-18 0 -30.5 12.5t-12.5 30.5v834v4.5t2 10.5t5.5 12.5t10.5 10.5t17 5h79q-1 -2 -1 -4v-182q0 -11 7.5 -19t18.5 -8t18.5 8t7.5 19v182v4h284l72 -71h356v0q18 0 30.5 -12.5t12.5 -30.5v-763z" />
    <glyph glyph-name="icon-quanxianguanli" unicode="&#xe629;" 
d="M733 492q10 -7 23 -7h1q4 0 8 2q67 23 95 96l-1 2l2 2l2 6t1 6q0 9 -8 15q-62 82 -130 131q-11 6 -23 6v0h-1q-4 0 -8 -1q-67 -23 -95 -96l1 -2l-2 -2q-1 -4 -1 -7q0 -11 5 -20q62 -82 131 -131zM637 646l2 4q6 18 23.5 36.5t35.5 25.5l4 2l3 -2q72 -54 114 -114l2 -3
l-1 -3q-14 -44 -60 -63l-4 -1l-3 2q-27 20 -60.5 53t-52.5 60zM992 174h-232q-14 0 -23.5 -9.5t-9.5 -22.5t9.5 -22.5t23.5 -9.5h232q13 0 22.5 9.5t9.5 22.5t-9.5 22.5t-22.5 9.5zM654 174q-13 0 -22.5 -9.5t-9.5 -22.5t9.5 -22.5t22.5 -9.5v0q14 0 23 9.5t9 22.5
t-9.5 22.5t-22.5 9.5zM992 346h-232q-14 0 -23.5 -9.5t-9.5 -22.5t9.5 -22.5t23.5 -9.5h232q13 0 22.5 9.5t9.5 22.5t-9.5 22.5t-22.5 9.5zM654 346q-13 0 -22.5 -9.5t-9.5 -22.5t9.5 -22.5t22.5 -9.5v0q14 0 23 9.5t9 22.5t-9.5 22.5t-22.5 9.5zM654 1.5q-13 0.5 -22.5 -9
t-9.5 -23t9.5 -23t22.5 -9.5v0q13 0 22.5 9.5t9.5 22.5t-9.5 22.5t-22.5 10zM992 2h-232q-14 0 -23.5 -9.5t-9.5 -23t9.5 -23t23.5 -9.5h232q13 0 22.5 9.5t9.5 23t-9.5 23t-22.5 9.5zM450 201v-82h-72q-24 0 -41 -17.5t-17 -40.5v-72h-82q-24 -1 -40 -18l-47 -48h-103v103
l424 424q-15 25 -25.5 63t-10.5 66v4q0 110 77.5 187.5t187 77.5t187 -77.5t77.5 -187.5v-4v-4q0 -27 -8.5 -63t-21.5 -59h62q11 24 18.5 61t7.5 64v1q-3 131 -96.5 224t-223.5 93t-222.5 -93t-92.5 -223v-3q0 -59 22 -113l1 -4l-396 -397q-15 -16 -15 -35v-98q1 -23 18 -40
t40 -18h98q16 0 35 15l49 50h78q23 1 40 18t18 40v73h72q23 0 40 17.5t18 40.5v78l36 36v76l-74 -75q-18 -16 -18 -40z" />
    <glyph glyph-name="icon-mendianhoutai" unicode="&#xe62a;" 
d="M512 896q-139 0 -257 -68.5t-186.5 -186.5t-68.5 -257t68.5 -257t186.5 -186.5t257 -68.5t257 68.5t186.5 186.5t68.5 257q0 104 -40.5 198.5t-109.5 163.5t-163.5 109.5t-198.5 40.5zM512 -103q-99 0 -189.5 38.5t-155.5 103.5t-103.5 155.5t-38.5 189.5t38.5 189.5
t103.5 155.5t155.5 103.5t189.5 38.5t189.5 -38.5t155.5 -103.5t103.5 -155.5t38.5 -189.5t-38.5 -189t-104 -155.5t-155.5 -104t-189 -38.5zM790 492h-1q1 1 1 2q0 3 -2 6l-67 150q-4 8 -13 8h-392q-9 0 -13 -8l-67 -150q-2 -3 -2 -6q0 -1 1 -2h-1q3 -20 16.5 -41t29.5 -32
v-288h-16q-6 0 -10.5 -4t-4.5 -10t4.5 -10t10.5 -4h496q6 0 10 4t4 10t-4 10t-10 4h-16v288q16 11 29.5 32t16.5 41zM699 630l55 -122h-145l-19 122h109zM462 630h100l19 -122h-138zM582 480q-7 -21 -27.5 -35.5t-42.5 -14.5t-42.5 14.5t-27.5 35.5h140zM325 630h109
l-19 -122h-145zM266 480h141q-7 -21 -27.5 -35.5t-42.5 -14.5t-43 14.5t-28 35.5v0zM716 131h-283l1 1v170q0 3 -2.5 5t-4.5 2q-7 0 -7 -7v-169v-2h-112v274q14 -4 29 -4q24 0 49.5 14.5t37.5 35.5q13 -21 38.5 -35.5t49.5 -14.5t49.5 14.5t38.5 35.5q12 -21 37.5 -35.5
t49.5 -14.5q15 0 29 4v-274zM687 430q-21 0 -42 14.5t-28 35.5h141q-8 -21 -28.5 -35.5t-42.5 -14.5v0zM595 227l26 40v2q0 8 -8 8q-2 0 -5 -2l-26 -40v-3q0 -4 4 -6q2 -1 4 -1q3 0 5 2zM635 245q-2 2 -4 2q-4 0 -6 -4l-36 -56q-1 -1 -1 -4q0 -4 3 -6q2 -1 4 -1q4 0 6 3
l36 56q1 2 1 4q0 4 -3 6z" />
    <glyph glyph-name="icon-shanghuhoutai" unicode="&#xe62b;" 
d="M512 896q-139 0 -257 -68.5t-186.5 -186.5t-68.5 -257t68.5 -257t186.5 -186.5t257 -68.5t257 68.5t186.5 186.5t68.5 257q0 104 -40.5 198.5t-109.5 163.5t-163.5 109.5t-198.5 40.5zM512 -103q-99 0 -189.5 38.5t-155.5 103.5t-103.5 155.5t-38.5 189.5t38.5 189.5
t103.5 155.5t155.5 103.5t189.5 38.5t189.5 -38.5t155.5 -103.5t103.5 -155.5t38.5 -189.5t-38.5 -189t-104 -155.5t-155.5 -104t-189 -38.5zM363 503q-4 -2 -7 -4v0l-2 -2h-1l-2 -3h-1l-2 -2v0l-2 -2l-1 -1l-2 -2v0l-1 -3h-1q0 -2 -1 -3v0q-2 -3 -3 -6v0q0 -2 -1 -3
q-1 -3 -1 -7v0q0 -2 -1 -3v-7h119v3q0 6 -2 11q-4 14 -16.5 25.5t-26.5 14.5q7 4 12.5 13t5.5 17v0q0 15 -10 25t-24.5 10t-24.5 -10t-10 -25v0q0 -9 5.5 -18t13.5 -13q-7 -2 -13 -5v0zM797 311q-2 7 -8 12t-14 5q-3 10 -7 19q6 6 6 15q0 7 -4 13q-20 31 -51 51q-6 4 -12 4
q-9 0 -16 -7q-9 5 -19 8q0 7 -5 13.5t-12 8.5q-18 3 -36.5 3t-36.5 -3q-7 -2 -12.5 -8.5t-5.5 -13.5q-9 -3 -18 -8q-7 7 -16 7q-6 0 -12 -4q-31 -20 -51 -52q-4 -5 -4 -12q0 -9 6 -15q-4 -9 -8 -19q-7 0 -13 -5t-8 -12q-3 -18 -3 -36.5t3 -36.5q2 -7 8 -12.5t14 -5.5
q3 -9 7 -18q-6 -7 -6 -16q0 -7 4 -12q20 -31 51 -51q5 -4 12 -4q9 0 16 6q9 -4 18 -7q0 -8 5.5 -14t12.5 -8q18 -4 36 -4t36 4q8 2 13 8t5 14q10 3 19 7q6 -6 15 -6q7 0 13 4q31 20 51 51q4 6 4 12q0 9 -6 16q4 9 7 18q8 0 14 5.5t8 12.5q3 18 3 36.5t-3 36.5v0zM770 248h-5
v0q-11 0 -14 -10q-4 -17 -13 -32q-2 -3 -2 -7q0 -6 4 -10l4 -4q-15 -21 -37 -36l-3 4q-4 4 -10 4q-4 0 -7 -2q-15 -9 -32 -13q-11 -3 -11 -14v0v-5q-12 -2 -25.5 -2t-25.5 2v5v0q0 11 -11 14q-16 4 -32 13q-3 2 -7 2q-5 0 -10 -4l-3 -4q-22 15 -37 37l4 3q4 4 4 10q0 4 -2 7
q-9 15 -13 32q-3 10 -14 10v0h-5q-2 13 -2 26t2 26h5v0q11 0 14 10q4 17 13 32q2 4 2 7q0 6 -4 10l-4 4q15 21 37 37l4 -4q4 -4 9 -4q4 0 7 2q16 8 32 13q11 3 11 14v0v5q13 2 26 2t25 -2v-5v0q0 -11 11 -14q17 -5 32 -13q3 -2 7 -2q6 0 10 4l3 4q22 -16 37 -37l-4 -4
q-4 -4 -4 -10q0 -3 2 -7q9 -15 13 -32q3 -10 14 -10v0h5q2 -13 2 -26t-2 -26v0zM618 357v0q-34 0 -58.5 -24t-24.5 -58.5t24.5 -59t59 -24.5t58.5 24.5t24 59t-24 58.5t-59 24zM618 213v0q-25 0 -42.5 18t-17.5 43t17.5 43t42.5 18t43 -18t18 -43t-18 -42.5t-43 -17.5v-1z
M412 185.5q0 5.5 -4 9.5t-9 4h-112q-5 0 -8 3.5t-3 7.5v396v0q0 5 3 8t8 3h361v0q5 0 8 -3t3 -8v-97q0 -5 4 -9t9.5 -4t9.5 4t4 9v97q0 16 -11 27t-27 11h-361q-16 0 -27.5 -11t-11.5 -27v-396q0 -16 11.5 -27t27.5 -11h112q5 0 9 4t4 9.5z" />
    <glyph glyph-name="icon-zongbuhoutai" unicode="&#xe62c;" 
d="M512 896q-139 0 -257 -68.5t-186.5 -186.5t-68.5 -257t68.5 -257t186.5 -186.5t257 -68.5t257 68.5t186.5 186.5t68.5 257q0 104 -40.5 199t-109 163.5t-163.5 109t-199 40.5v0zM512 -103q-99 0 -189.5 38.5t-155.5 103.5t-103.5 155.5t-38.5 189.5t38.5 189.5
t103.5 155.5t155.5 103.5t189.5 38.5t189.5 -38.5t155.5 -103.5t103.5 -155.5t38.5 -189.5t-38.5 -189t-104 -155.5t-155.5 -104t-189 -38.5v0zM343 593v-209h-12q-4 0 -7 -3t-3 -7t3 -7t7 -3h362q4 0 7 3t3 7t-3 7t-7 3h-12v209q30 21 33 57v-2v0q0 3 -1 5l-49 109
q-3 6 -9 6h-285q-7 0 -10 -6l-49 -110q-1 -1 -1 -4v-2q5 -36 36 -55zM640 601q-18 1 -32 11t-20 26h103q-6 -16 -20 -26t-31 -11v0zM648 747l40 -89h-105l-14 89h79zM476 747h72l14 -89h-100zM563 638q-6 -16 -20 -26t-31 -10t-31 10t-20 26h102zM512 581q42 0 64 36
q22 -36 64 -36q11 0 21 3l-1 -200h-205v1v0v123q0 6 -5 6t-5 -6v-123l-1 -1h1h-81v200q9 -3 21 -3q41 0 63 36q23 -36 64 -36v0zM376 747h79l-14 -89h-105zM436 638q-6 -16 -20 -26t-31.5 -10t-31.5 10t-20 26h103zM566 453q1 -1 3 -1t3 2l19 29v2q0 5 -5 5q-2 0 -4 -1
l-19 -30v-1q0 -3 3 -5v0zM569 418q2 -1 3 -1q3 0 5 2l26 41q1 1 1 3q0 5 -6 5q-2 0 -4 -2l-26 -41q-1 -1 -1 -3q0 -3 2 -4v0zM381 99q5 0 5 5t-5 5h-6v107q15 10 17 29v-1v0q0 1 -1 2l-25 55q-1 3 -4 3v0h-145v0q-4 0 -5 -3l-25 -55v-2v-1q2 -19 18 -28l-1 -106h-7
q-5 0 -5 -5t5 -5h184v0zM354 220q-19 0 -26 18h52q-7 -18 -26 -18v0zM358 294l21 -45h-54l-7 45h40zM271 294h37l7 -45h-51zM315 238q-6 -18 -25.5 -18t-26.5 18h52zM220 294h40l-7 -45h-53zM198 238h52q-6 -18 -25.5 -18t-26.5 18v0zM365 110h-105v0v0v63q0 2 -2.5 2
t-2.5 -2v-63v0v-1h-41v102q5 -2 10 -2v0q22 0 33 19q11 -19 32 -19t32 19q12 -19 33 -19v0q6 0 11 2v-101zM320 145l9 15v0q0 3 -2 3h-2l-10 -15v-1q0 -2 1 -2q1 -1 2 -1t2 1zM331 151l-14 -20v-2t1 -2t2 -1t2 2l13 20q1 1 1 2q0 2 -3 2q-1 0 -2 -1v0zM837 243v1v2l-25 55
q-1 3 -5 3v0h-145v0q-3 0 -4 -3l-25 -55q-1 -1 -1 -2v-1q3 -19 19 -28l-2 -106h-6q-5 0 -5 -5t5 -5h184q5 0 5 5t-5 5h-6v107q15 10 17 29zM804 294l20 -45h-53l-7 45h40zM716 294h37l7 -45h-51zM761 239q-7 -19 -26.5 -19t-25.5 18zM666 294h40l-7 -45h-54zM644 238h52
q-7 -18 -26.5 -18t-25.5 18v0zM810 110h-104v0v0v63q-1 2 -3 2t-2 -2v-63v0v-1h-42v102q5 -2 11 -2v0q21 0 32 19q12 -19 33 -19t32 19q11 -19 33 -19v0q5 0 10 2v-101zM799 220q-19 0 -26 18h52q-6 -18 -25 -18h-1zM765 145l10 15v0q0 3 -3 3h-2l-9 -15v-1q0 -2 1 -2
q1 -1 2 -1t1 1zM776 151l-13 -20v-2t1 -2l1 -1q2 0 3 2l13 20v2q0 2 -2 2t-3 -1v0zM584 170h-67v129v0q0 5 -5 5t-5 -5v0v-129h-67v0q-6 0 -6 -5.5t6 -5.5v0h144q6 0 6 5.5t-6 5.5z" />
    <glyph glyph-name="icon-tongzhi" unicode="&#xe62d;" 
d="M637 895q-2 1 -5 1q-5 0 -10 -4l-371 -353h-237h-1q-5 0 -9 -3.5t-4 -8.5v-283q0 -5 4 -8.5t9 -3.5h1h237l371 -356q4 -4 10 -4v0v0q3 0 5 1q9 3 9 11v999q0 9 -9 12zM835 731q-3 2 -7 2q-6 0 -9.5 -3.5t-3.5 -9.5v-92q0 -6 4 -10q44 -39 75 -107.5t31 -126.5t-31 -126.5
t-75 -107.5q-4 -4 -4 -10v-92q0 -6 3.5 -9.5t9.5 -3.5q4 0 7 2q78 50 133.5 152t55.5 195t-55.5 195t-133.5 152z" />
  </font>
</defs>
</svg>
